# xmcd CD database file
#
# Track frame offsets:
#	150
#	14888
#	24233
#	41018
#	52250
#	62965
#	75426
#	86474
#	99969
#	115628
#	127205
#	141252
#	152142
#	164672
#	174735
#	185338
#	197626
#	209706
#	220420
#	230734
#	242747
#	257415
#	269829
#	281891
#	292630
#
# Disc length: 4052 seconds
#
# Revision: 1
# Processed by: cddbd v1.5.2PL0 Copyright (c) Steve Scherf et al.
# Submitted via: CDex 1.77
#
DISCID=810fd219
DTITLE=Various Artist - The unforgetable Love Songs Collections 8
DYEAR=1900
DGENRE=Country
TTITLE0=El Condor Pasa
TTITLE1=Rawhide
TTITLE2=Yesterday When I Was Young
TTITLE3=Summer Time
TTITLE4=The Ballad Of The Green Berets-s
TTITLE5=Michael
TTITLE6=Doggie In The Window
TTITLE7=9999999 Tears
TTITLE8=Leaving On A Jet Plane
TTITLE9=The Battle Of New Orleans
TTITLE10=The Last Waltz
TTITLE11=It's Bitsy Teenie Weenie Yellow Polka Dot Biking
TTITLE12=Today
TTITLE13=Rock Around The Clock
TTITLE14=The End
TTITLE15=Gone The Rainbow
TTITLE16=Everybody's Somebody's Fool
TTITLE17=Woolly Bully
TTITLE18=I've Told Every Little Star
TTITLE19=Hello Darling
TTITLE20=Woman Woman
TTITLE21=Crazy
TTITLE22=Keep Searching
TTITLE23=Hurt
TTITLE24=Save The Last Dance For Me
EXTD=
EXTT0=
EXTT1=
EXTT2=
EXTT3=
EXTT4=
EXTT5=
EXTT6=
EXTT7=
EXTT8=
EXTT9=
EXTT10=
EXTT11=
EXTT12=
EXTT13=
EXTT14=
EXTT15=
EXTT16=
EXTT17=
EXTT18=
EXTT19=
EXTT20=
EXTT21=
EXTT22=
EXTT23=
EXTT24=
PLAYORDER=
